<svg>
    <symbol id="book" viewBox="0 0 823 476">
        <g filter="url(#filter0_b_154_752)">
            <path d="M111 28.7373C136.333 33.904 200.8 40.0373 256 23.2373C311.2 6.43734 367.667 19.904 389 28.7373C400 20.2373 429 3.83734 457 6.23734C492 9.23734 597.5 20.7373 612.5 16.7373C624.5 13.5373 628.167 23.404 628.5 28.7373C665.5 116.571 748.8 299.737 786 329.737C782.573 332.04 776.815 335.083 769 338.152L798.5 368.237L797.29 372.737L794.132 384.487L790.973 396.237L822 423.237V437.237L577.5 423.237C563.1 433.501 534.5 427.514 522 423.237L228 469.237L22 75.2373L41 66.7373H80.2545L84.1273 61.9508L88 57.1643L92.3909 51.7373L97.65 45.2373L102.1 39.7373L105.741 35.2373L111 28.7373Z" fill="url(#paint0_linear_154_752)"/>
            <path d="M111 28.7373C136.333 33.904 200.8 40.0373 256 23.2373C311.2 6.43734 367.667 19.904 389 28.7373M111 28.7373C123 86.7373 228.333 293.904 279.5 390.237M111 28.7373L105.741 35.2373M389 28.7373L543 359.737M389 28.7373C400 20.2373 429 3.83734 457 6.23734C492 9.23734 597.5 20.7373 612.5 16.7373C624.5 13.5373 628.167 23.404 628.5 28.7373C665.5 116.571 748.8 299.737 786 329.737C782.573 332.04 776.815 335.083 769 338.152M543 359.737C521.333 359.571 469.1 363.537 433.5 380.737C397.9 397.937 316 394.237 279.5 390.237M543 359.737C540.167 363.904 540.9 369.737 566.5 359.737C595.815 348.286 628.908 350.682 680 351.165M543 359.737L540 366.737M279.5 390.237L277.043 393.237M241 437.237L66.5 83.7373L76.5 71.3778M241 437.237L522 408.737M241 437.237L247.144 429.737M522 408.737L786 414.737L787.479 409.237M522 408.737L524.679 402.487M798.5 368.237L769 338.152M798.5 368.237C789.667 369.689 753.6 368.307 680 351.165M798.5 368.237L797.29 372.737M769 338.152C752.493 344.635 726.805 351.237 694.5 351.237C689.508 351.237 684.679 351.209 680 351.165M80.2545 66.7373H41M80.2545 66.7373L84.1273 61.9508M80.2545 66.7373L76.5 71.3778M41 66.7373C33.58 70.0568 29.42 71.9179 22 75.2373L228 469.237M41 66.7373L234.5 451.237M228 469.237L234.5 451.237M228 469.237L522 423.237C534.5 427.514 563.1 433.501 577.5 423.237L822 437.237V423.237M234.5 451.237L522 414.737C539.2 419.537 573.167 416.737 588 414.737L822 423.237M822 423.237L790.973 396.237M105.741 35.2373L124 77.2373L136.5 110.737C139 118.071 144.1 133.137 144.5 134.737C144.9 136.337 172.667 191.071 186.5 218.237L224.5 294.237L244.5 331.737L266.5 383.737L277.043 393.237M105.741 35.2373L102.1 39.7373M277.043 393.237L298 395.737H347L410 399.237L438.5 387.237L470.5 375.737H496L522 366.737H540M277.043 393.237L274.995 395.737M102.1 39.7373L115.5 66.7373L126.5 100.237L144.5 151.237L176 205.237L213 287.737L234.5 320.737L258.5 375.737L266.5 393.237L272.947 398.237M102.1 39.7373L97.65 45.2373M272.947 398.237L274.995 395.737M272.947 398.237L268.441 403.737M97.65 45.2373L118 83.7373L129.5 120.737L136.5 146.737L149 181.237L167.5 211.737L186.5 249.737L204 277.237L219 309.237L234.5 344.237L252 372.737L266.5 406.107M97.65 45.2373L92.3909 51.7373M266.5 406.107L262.707 410.737M266.5 406.107L268.441 403.737M92.3909 51.7373L105.741 83.7373L115.5 100.237L126.5 137.237L144.5 173.237L157 205.237L167.5 229.237L194 269.237L219 320.737L224.5 344.237L234.5 370.237L248 383.737L261 403.737L262.707 410.737M92.3909 51.7373L88 57.1643M262.707 410.737L258.5 415.874M88 57.1643L100 79.2373L108 102.737L120 127.737L144.5 186.237L159 222.737L173 247.237L186.5 266.737L204 298.237L213 317.737L222 350.737L228 366.737L234.5 381.737L250.5 399.237L258.5 415.874M88 57.1643L84.1273 61.9508M258.5 415.874L256.5 418.315M84.1273 61.9508L92.3909 89.2373L102.1 110.737L111 127.737L124 155.237L136.5 183.237L144.5 201.737L157 229.237L167.5 244.737L183.5 285.737L194 307.237L204 320.737L213 337.737L217 360.737L226 380.237L241 398.237L250.5 415.874L249.75 426.556M249.75 426.556L247.144 429.737M249.75 426.556L256.5 418.315M249.75 426.556H274.995L284 420.737L316 426.556L349.5 423.237L384 418.315L445.5 410.737L490 407.737L510.5 402.737L524.679 402.487M76.5 71.3778L88 91.7373L92.3909 110.737L105.741 134.737L115.5 151.237L126.5 183.237L157 238.737L173 273.737L197 324.237L207 350.737L229.5 398.237L247.144 429.737M540 366.737L538.714 369.737M274.995 395.737L316 403.737H347L365 399.237L407 408.737L429 399.237L447.5 393.237C455.333 392.237 471.5 390.237 473.5 390.237C475.5 390.237 489.333 385.904 496 383.737L512 381.737L525.5 380.237L537.429 372.737M537.429 372.737L538.714 369.737M537.429 372.737L535.071 378.237M268.441 403.737L290 408.737L323 414.737L347 410.737L373 408.737H393.5L417.5 410.737L438.5 403.737L463.5 398.237L491.5 390.237H514.5L532.714 383.737M532.714 383.737L535.071 378.237M532.714 383.737L556.5 384.487L588 380.737L619.5 383.737L643 387.237L662 383.737L694.5 384.487L720 387.237L747 383.737L769 387.237L781.5 393.237L790.167 399.237M532.714 383.737L530.036 389.987M256.5 418.315L287 415.874L305 423.237L338 420.737L358.5 415.874L388 414.737L433.5 410.737L447.5 403.737L470.5 401.237L500 399.237L520 393.237L527.357 396.237M527.357 396.237L530.036 389.987M527.357 396.237L526.018 399.362M524.679 402.487L526.018 399.362M790.973 396.237L794.132 384.487M790.973 396.237L790.167 399.237M538.714 369.737H561L601.5 357.237H647L675 359.737L707 369.737L723.5 366.737L750.5 369.737L774.5 375.737L797.29 372.737M797.29 372.737L794.132 384.487M535.071 378.237L543 372.737L558.5 375.737H577.5L593.5 369.737H615L637.5 378.237L650.5 369.737H670.5L692 375.737L723.5 378.237L733 375.737L764 378.237L794.132 384.487M790.167 399.237L788.957 403.737M530.036 389.987L558.5 393.237L577.5 390.237H598L612.5 396.237H643L658 393.237L688 396.237L698.5 399.237L717 393.237H757.5L769 401.237L788.957 403.737M788.957 403.737L787.479 409.237M526.018 399.362L545.5 398.237L566.5 401.237L590.5 402.487L601.5 398.237L629.5 401.237L655 403.737L666.5 402.737L703 403.737L748 405.237L776.5 407.737L787.479 409.237" stroke="url(#paint1_linear_154_752)" stroke-width="2"/>
            <g style="mix-blend-mode:color-dodge">
                <g style="mix-blend-mode:hard-light" filter="url(#filter1_f_154_752)">
                    <path d="M96 29.3559C121.333 34.5226 185.8 40.6559 241 23.8559C296.2 7.0559 352.667 20.5226 374 29.3559M96 29.3559C108 87.3559 213.333 294.523 264.5 390.856M96 29.3559L90.7409 35.8559M374 29.3559L528 360.356M374 29.3559C385 20.8559 414 4.4559 442 6.8559C477 9.8559 582.5 21.3559 597.5 17.3559C609.5 14.1559 613.167 24.0226 613.5 29.3559C650.5 117.189 733.8 300.356 771 330.356C767.573 332.659 761.815 335.701 754 338.771M528 360.356C506.333 360.189 454.1 364.156 418.5 381.356C382.9 398.556 301 394.856 264.5 390.856M528 360.356C525.167 364.523 525.9 370.356 551.5 360.356C580.815 348.905 613.908 351.301 665 351.784M528 360.356L525 367.356M264.5 390.856L262.043 393.856M226 437.856L51.5 84.3559L61.5 71.9963M226 437.856L507 409.356M226 437.856L232.144 430.356M507 409.356L771 415.356L772.479 409.856M507 409.356L509.679 403.106M783.5 368.856L754 338.771M783.5 368.856C774.667 370.308 738.6 368.926 665 351.784M783.5 368.856L782.29 373.356M754 338.771C737.493 345.254 711.805 351.856 679.5 351.856C674.508 351.856 669.679 351.828 665 351.784M65.2546 67.3559H26M65.2546 67.3559L69.1273 62.5694M65.2546 67.3559L61.5 71.9963M26 67.3559C18.5801 70.6754 14.42 72.5364 7.00003 75.8559L213 469.856M26 67.3559L219.5 451.856M213 469.856L219.5 451.856M213 469.856L507 423.856C519.5 428.132 548.1 434.12 562.5 423.856L807 437.856V423.856M219.5 451.856L507 415.356C524.2 420.156 558.167 417.356 573 415.356L807 423.856M807 423.856L775.973 396.856M90.7409 35.8559L109 77.8559L121.5 111.356C124 118.689 129.1 133.756 129.5 135.356C129.9 136.956 157.667 191.689 171.5 218.856L209.5 294.856L229.5 332.356L251.5 384.356L262.043 393.856M90.7409 35.8559L87.1 40.3559M262.043 393.856L283 396.356H332L395 399.856L423.5 387.856L455.5 376.356H481L507 367.356H525M262.043 393.856L259.995 396.356M87.1 40.3559L100.5 67.3559L111.5 100.856L129.5 151.856L161 205.856L198 288.356L219.5 321.356L243.5 376.356L251.5 393.856L257.947 398.856M87.1 40.3559L82.65 45.8559M257.947 398.856L259.995 396.356M257.947 398.856L253.442 404.356M82.65 45.8559L103 84.3559L114.5 121.356L121.5 147.356L134 181.856L152.5 212.356L171.5 250.356L189 277.856L204 309.856L219.5 344.856L237 373.356L251.5 406.726M82.65 45.8559L77.3909 52.3559M251.5 406.726L247.707 411.356M251.5 406.726L253.442 404.356M77.3909 52.3559L90.7409 84.3559L100.5 100.856L111.5 137.856L129.5 173.856L142 205.856L152.5 229.856L179 269.856L204 321.356L209.5 344.856L219.5 370.856L233 384.356L246 404.356L247.707 411.356M77.3909 52.3559L73 57.7829M247.707 411.356L243.5 416.492M73 57.7829L85 79.8559L93 103.356L105 128.356L129.5 186.856L144 223.356L158 247.856L171.5 267.356L189 298.856L198 318.356L207 351.356L213 367.356L219.5 382.356L235.5 399.856L243.5 416.492M73 57.7829L69.1273 62.5694M243.5 416.492L241.5 418.934M69.1273 62.5694L77.3909 89.8559L87.1 111.356L96 128.356L109 155.856L121.5 183.856L129.5 202.356L142 229.856L152.5 245.356L168.5 286.356L179 307.856L189 321.356L198 338.356L202 361.356L211 380.856L226 398.856L235.5 416.492L234.75 427.174M234.75 427.174L232.144 430.356M234.75 427.174L241.5 418.934M234.75 427.174H259.995L269 421.356L301 427.174L334.5 423.856L369 418.934L430.5 411.356L475 408.356L495.5 403.356L509.679 403.106M61.5 71.9963L73 92.3559L77.3909 111.356L90.7409 135.356L100.5 151.856L111.5 183.856L142 239.356L158 274.356L182 324.856L192 351.356L214.5 398.856L232.144 430.356M525 367.356L523.714 370.356M259.995 396.356L301 404.356H332L350 399.856L392 409.356L414 399.856L432.5 393.856C440.333 392.856 456.5 390.856 458.5 390.856C460.5 390.856 474.333 386.523 481 384.356L497 382.356L510.5 380.856L522.429 373.356M522.429 373.356L523.714 370.356M522.429 373.356L520.071 378.856M253.442 404.356L275 409.356L308 415.356L332 411.356L358 409.356H378.5L402.5 411.356L423.5 404.356L448.5 398.856L476.5 390.856H499.5L517.714 384.356M517.714 384.356L520.071 378.856M517.714 384.356L541.5 385.106L573 381.356L604.5 384.356L628 387.856L647 384.356L679.5 385.106L705 387.856L732 384.356L754 387.856L766.5 393.856L775.167 399.856M517.714 384.356L515.036 390.606M241.5 418.934L272 416.492L290 423.856L323 421.356L343.5 416.492L373 415.356L418.5 411.356L432.5 404.356L455.5 401.856L485 399.856L505 393.856L512.357 396.856M512.357 396.856L515.036 390.606M512.357 396.856L511.018 399.981M509.679 403.106L511.018 399.981M775.973 396.856L779.132 385.106M775.973 396.856L775.167 399.856M523.714 370.356H546L586.5 357.856H632L660 360.356L692 370.356L708.5 367.356L735.5 370.356L759.5 376.356L782.29 373.356M782.29 373.356L779.132 385.106M520.071 378.856L528 373.356L543.5 376.356H562.5L578.5 370.356H600L622.5 378.856L635.5 370.356H655.5L677 376.356L708.5 378.856L718 376.356L749 378.856L779.132 385.106M775.167 399.856L773.957 404.356M515.036 390.606L543.5 393.856L562.5 390.856H583L597.5 396.856H628L643 393.856L673 396.856L683.5 399.856L702 393.856H742.5L754 401.856L773.957 404.356M773.957 404.356L772.479 409.856M511.018 399.981L530.5 398.856L551.5 401.856L575.5 403.106L586.5 398.856L614.5 401.856L640 404.356L651.5 403.356L688 404.356L733 405.856L761.5 408.356L772.479 409.856" stroke="#FFAB2D" stroke-width="1.3"/>
                </g>
                <g style="mix-blend-mode:hard-light" filter="url(#filter2_f_154_752)">
                    <path d="M96 29.3559C121.333 34.5226 185.8 40.6559 241 23.8559C296.2 7.0559 352.667 20.5226 374 29.3559M96 29.3559C108 87.3559 213.333 294.523 264.5 390.856M96 29.3559L90.7409 35.8559M374 29.3559L528 360.356M374 29.3559C385 20.8559 414 4.4559 442 6.8559C477 9.8559 582.5 21.3559 597.5 17.3559C609.5 14.1559 613.167 24.0226 613.5 29.3559C650.5 117.189 733.8 300.356 771 330.356C767.573 332.659 761.815 335.701 754 338.771M528 360.356C506.333 360.189 454.1 364.156 418.5 381.356C382.9 398.556 301 394.856 264.5 390.856M528 360.356C525.167 364.523 525.9 370.356 551.5 360.356C580.815 348.905 613.908 351.301 665 351.784M528 360.356L525 367.356M264.5 390.856L262.043 393.856M226 437.856L51.5 84.3559L61.5 71.9963M226 437.856L507 409.356M226 437.856L232.144 430.356M507 409.356L771 415.356L772.479 409.856M507 409.356L509.679 403.106M783.5 368.856L754 338.771M783.5 368.856C774.667 370.308 738.6 368.926 665 351.784M783.5 368.856L782.29 373.356M754 338.771C737.493 345.254 711.805 351.856 679.5 351.856C674.508 351.856 669.679 351.828 665 351.784M65.2546 67.3559H26M65.2546 67.3559L69.1273 62.5694M65.2546 67.3559L61.5 71.9963M26 67.3559C18.5801 70.6754 14.42 72.5364 7.00003 75.8559L213 469.856M26 67.3559L219.5 451.856M213 469.856L219.5 451.856M213 469.856L507 423.856C519.5 428.132 548.1 434.12 562.5 423.856L807 437.856V423.856M219.5 451.856L507 415.356C524.2 420.156 558.167 417.356 573 415.356L807 423.856M807 423.856L775.973 396.856M90.7409 35.8559L109 77.8559L121.5 111.356C124 118.689 129.1 133.756 129.5 135.356C129.9 136.956 157.667 191.689 171.5 218.856L209.5 294.856L229.5 332.356L251.5 384.356L262.043 393.856M90.7409 35.8559L87.1 40.3559M262.043 393.856L283 396.356H332L395 399.856L423.5 387.856L455.5 376.356H481L507 367.356H525M262.043 393.856L259.995 396.356M87.1 40.3559L100.5 67.3559L111.5 100.856L129.5 151.856L161 205.856L198 288.356L219.5 321.356L243.5 376.356L251.5 393.856L257.947 398.856M87.1 40.3559L82.65 45.8559M257.947 398.856L259.995 396.356M257.947 398.856L253.442 404.356M82.65 45.8559L103 84.3559L114.5 121.356L121.5 147.356L134 181.856L152.5 212.356L171.5 250.356L189 277.856L204 309.856L219.5 344.856L237 373.356L251.5 406.726M82.65 45.8559L77.3909 52.3559M251.5 406.726L247.707 411.356M251.5 406.726L253.442 404.356M77.3909 52.3559L90.7409 84.3559L100.5 100.856L111.5 137.856L129.5 173.856L142 205.856L152.5 229.856L179 269.856L204 321.356L209.5 344.856L219.5 370.856L233 384.356L246 404.356L247.707 411.356M77.3909 52.3559L73 57.7829M247.707 411.356L243.5 416.492M73 57.7829L85 79.8559L93 103.356L105 128.356L129.5 186.856L144 223.356L158 247.856L171.5 267.356L189 298.856L198 318.356L207 351.356L213 367.356L219.5 382.356L235.5 399.856L243.5 416.492M73 57.7829L69.1273 62.5694M243.5 416.492L241.5 418.934M69.1273 62.5694L77.3909 89.8559L87.1 111.356L96 128.356L109 155.856L121.5 183.856L129.5 202.356L142 229.856L152.5 245.356L168.5 286.356L179 307.856L189 321.356L198 338.356L202 361.356L211 380.856L226 398.856L235.5 416.492L234.75 427.174M234.75 427.174L232.144 430.356M234.75 427.174L241.5 418.934M234.75 427.174H259.995L269 421.356L301 427.174L334.5 423.856L369 418.934L430.5 411.356L475 408.356L495.5 403.356L509.679 403.106M61.5 71.9963L73 92.3559L77.3909 111.356L90.7409 135.356L100.5 151.856L111.5 183.856L142 239.356L158 274.356L182 324.856L192 351.356L214.5 398.856L232.144 430.356M525 367.356L523.714 370.356M259.995 396.356L301 404.356H332L350 399.856L392 409.356L414 399.856L432.5 393.856C440.333 392.856 456.5 390.856 458.5 390.856C460.5 390.856 474.333 386.523 481 384.356L497 382.356L510.5 380.856L522.429 373.356M522.429 373.356L523.714 370.356M522.429 373.356L520.071 378.856M253.442 404.356L275 409.356L308 415.356L332 411.356L358 409.356H378.5L402.5 411.356L423.5 404.356L448.5 398.856L476.5 390.856H499.5L517.714 384.356M517.714 384.356L520.071 378.856M517.714 384.356L541.5 385.106L573 381.356L604.5 384.356L628 387.856L647 384.356L679.5 385.106L705 387.856L732 384.356L754 387.856L766.5 393.856L775.167 399.856M517.714 384.356L515.036 390.606M241.5 418.934L272 416.492L290 423.856L323 421.356L343.5 416.492L373 415.356L418.5 411.356L432.5 404.356L455.5 401.856L485 399.856L505 393.856L512.357 396.856M512.357 396.856L515.036 390.606M512.357 396.856L511.018 399.981M509.679 403.106L511.018 399.981M775.973 396.856L779.132 385.106M775.973 396.856L775.167 399.856M523.714 370.356H546L586.5 357.856H632L660 360.356L692 370.356L708.5 367.356L735.5 370.356L759.5 376.356L782.29 373.356M782.29 373.356L779.132 385.106M520.071 378.856L528 373.356L543.5 376.356H562.5L578.5 370.356H600L622.5 378.856L635.5 370.356H655.5L677 376.356L708.5 378.856L718 376.356L749 378.856L779.132 385.106M775.167 399.856L773.957 404.356M515.036 390.606L543.5 393.856L562.5 390.856H583L597.5 396.856H628L643 393.856L673 396.856L683.5 399.856L702 393.856H742.5L754 401.856L773.957 404.356M773.957 404.356L772.479 409.856M511.018 399.981L530.5 398.856L551.5 401.856L575.5 403.106L586.5 398.856L614.5 401.856L640 404.356L651.5 403.356L688 404.356L733 405.856L761.5 408.356L772.479 409.856" stroke="#FFAB2D" stroke-width="1.7"/>
                </g>
                <g style="mix-blend-mode:hard-light" filter="url(#filter3_ddi_154_752)">
                    <path d="M96 29.3559C121.333 34.5226 185.8 40.6559 241 23.8559C296.2 7.0559 352.667 20.5226 374 29.3559M96 29.3559C108 87.3559 213.333 294.523 264.5 390.856M96 29.3559L90.7409 35.8559M374 29.3559L528 360.356M374 29.3559C385 20.8559 414 4.4559 442 6.8559C477 9.8559 582.5 21.3559 597.5 17.3559C609.5 14.1559 613.167 24.0226 613.5 29.3559C650.5 117.189 733.8 300.356 771 330.356C767.573 332.659 761.815 335.701 754 338.771M528 360.356C506.333 360.189 454.1 364.156 418.5 381.356C382.9 398.556 301 394.856 264.5 390.856M528 360.356C525.167 364.523 525.9 370.356 551.5 360.356C580.815 348.905 613.908 351.301 665 351.784M528 360.356L525 367.356M264.5 390.856L262.043 393.856M226 437.856L51.5 84.3559L61.5 71.9963M226 437.856L507 409.356M226 437.856L232.144 430.356M507 409.356L771 415.356L772.479 409.856M507 409.356L509.679 403.106M783.5 368.856L754 338.771M783.5 368.856C774.667 370.308 738.6 368.926 665 351.784M783.5 368.856L782.29 373.356M754 338.771C737.493 345.254 711.805 351.856 679.5 351.856C674.508 351.856 669.679 351.828 665 351.784M65.2546 67.3559H26M65.2546 67.3559L69.1273 62.5694M65.2546 67.3559L61.5 71.9963M26 67.3559C18.5801 70.6754 14.42 72.5364 7.00003 75.8559L213 469.856M26 67.3559L219.5 451.856M213 469.856L219.5 451.856M213 469.856L507 423.856C519.5 428.132 548.1 434.12 562.5 423.856L807 437.856V423.856M219.5 451.856L507 415.356C524.2 420.156 558.167 417.356 573 415.356L807 423.856M807 423.856L775.973 396.856M90.7409 35.8559L109 77.8559L121.5 111.356C124 118.689 129.1 133.756 129.5 135.356C129.9 136.956 157.667 191.689 171.5 218.856L209.5 294.856L229.5 332.356L251.5 384.356L262.043 393.856M90.7409 35.8559L87.1 40.3559M262.043 393.856L283 396.356H332L395 399.856L423.5 387.856L455.5 376.356H481L507 367.356H525M262.043 393.856L259.995 396.356M87.1 40.3559L100.5 67.3559L111.5 100.856L129.5 151.856L161 205.856L198 288.356L219.5 321.356L243.5 376.356L251.5 393.856L257.947 398.856M87.1 40.3559L82.65 45.8559M257.947 398.856L259.995 396.356M257.947 398.856L253.442 404.356M82.65 45.8559L103 84.3559L114.5 121.356L121.5 147.356L134 181.856L152.5 212.356L171.5 250.356L189 277.856L204 309.856L219.5 344.856L237 373.356L251.5 406.726M82.65 45.8559L77.3909 52.3559M251.5 406.726L247.707 411.356M251.5 406.726L253.442 404.356M77.3909 52.3559L90.7409 84.3559L100.5 100.856L111.5 137.856L129.5 173.856L142 205.856L152.5 229.856L179 269.856L204 321.356L209.5 344.856L219.5 370.856L233 384.356L246 404.356L247.707 411.356M77.3909 52.3559L73 57.7829M247.707 411.356L243.5 416.492M73 57.7829L85 79.8559L93 103.356L105 128.356L129.5 186.856L144 223.356L158 247.856L171.5 267.356L189 298.856L198 318.356L207 351.356L213 367.356L219.5 382.356L235.5 399.856L243.5 416.492M73 57.7829L69.1273 62.5694M243.5 416.492L241.5 418.934M69.1273 62.5694L77.3909 89.8559L87.1 111.356L96 128.356L109 155.856L121.5 183.856L129.5 202.356L142 229.856L152.5 245.356L168.5 286.356L179 307.856L189 321.356L198 338.356L202 361.356L211 380.856L226 398.856L235.5 416.492L234.75 427.174M234.75 427.174L232.144 430.356M234.75 427.174L241.5 418.934M234.75 427.174H259.995L269 421.356L301 427.174L334.5 423.856L369 418.934L430.5 411.356L475 408.356L495.5 403.356L509.679 403.106M61.5 71.9963L73 92.3559L77.3909 111.356L90.7409 135.356L100.5 151.856L111.5 183.856L142 239.356L158 274.356L182 324.856L192 351.356L214.5 398.856L232.144 430.356M525 367.356L523.714 370.356M259.995 396.356L301 404.356H332L350 399.856L392 409.356L414 399.856L432.5 393.856C440.333 392.856 456.5 390.856 458.5 390.856C460.5 390.856 474.333 386.523 481 384.356L497 382.356L510.5 380.856L522.429 373.356M522.429 373.356L523.714 370.356M522.429 373.356L520.071 378.856M253.442 404.356L275 409.356L308 415.356L332 411.356L358 409.356H378.5L402.5 411.356L423.5 404.356L448.5 398.856L476.5 390.856H499.5L517.714 384.356M517.714 384.356L520.071 378.856M517.714 384.356L541.5 385.106L573 381.356L604.5 384.356L628 387.856L647 384.356L679.5 385.106L705 387.856L732 384.356L754 387.856L766.5 393.856L775.167 399.856M517.714 384.356L515.036 390.606M241.5 418.934L272 416.492L290 423.856L323 421.356L343.5 416.492L373 415.356L418.5 411.356L432.5 404.356L455.5 401.856L485 399.856L505 393.856L512.357 396.856M512.357 396.856L515.036 390.606M512.357 396.856L511.018 399.981M509.679 403.106L511.018 399.981M775.973 396.856L779.132 385.106M775.973 396.856L775.167 399.856M523.714 370.356H546L586.5 357.856H632L660 360.356L692 370.356L708.5 367.356L735.5 370.356L759.5 376.356L782.29 373.356M782.29 373.356L779.132 385.106M520.071 378.856L528 373.356L543.5 376.356H562.5L578.5 370.356H600L622.5 378.856L635.5 370.356H655.5L677 376.356L708.5 378.856L718 376.356L749 378.856L779.132 385.106M775.167 399.856L773.957 404.356M515.036 390.606L543.5 393.856L562.5 390.856H583L597.5 396.856H628L643 393.856L673 396.856L683.5 399.856L702 393.856H742.5L754 401.856L773.957 404.356M773.957 404.356L772.479 409.856M511.018 399.981L530.5 398.856L551.5 401.856L575.5 403.106L586.5 398.856L614.5 401.856L640 404.356L651.5 403.356L688 404.356L733 405.856L761.5 408.356L772.479 409.856" stroke="#FFC940" stroke-opacity="0.2" stroke-width="1.3"/>
                </g>
                <g filter="url(#filter4_f_154_752)">
                    <path d="M96 29.3559C121.333 34.5226 185.8 40.6559 241 23.8559C296.2 7.0559 352.667 20.5226 374 29.3559M96 29.3559C108 87.3559 213.333 294.523 264.5 390.856M96 29.3559L90.7409 35.8559M374 29.3559L528 360.356M374 29.3559C385 20.8559 414 4.4559 442 6.8559C477 9.8559 582.5 21.3559 597.5 17.3559C609.5 14.1559 613.167 24.0226 613.5 29.3559C650.5 117.189 733.8 300.356 771 330.356C767.573 332.659 761.815 335.701 754 338.771M528 360.356C506.333 360.189 454.1 364.156 418.5 381.356C382.9 398.556 301 394.856 264.5 390.856M528 360.356C525.167 364.523 525.9 370.356 551.5 360.356C580.815 348.905 613.908 351.301 665 351.784M528 360.356L525 367.356M264.5 390.856L262.043 393.856M226 437.856L51.5 84.3559L61.5 71.9963M226 437.856L507 409.356M226 437.856L232.144 430.356M507 409.356L771 415.356L772.479 409.856M507 409.356L509.679 403.106M783.5 368.856L754 338.771M783.5 368.856C774.667 370.308 738.6 368.926 665 351.784M783.5 368.856L782.29 373.356M754 338.771C737.493 345.254 711.805 351.856 679.5 351.856C674.508 351.856 669.679 351.828 665 351.784M65.2546 67.3559H26M65.2546 67.3559L69.1273 62.5694M65.2546 67.3559L61.5 71.9963M26 67.3559C18.5801 70.6754 14.42 72.5364 7.00003 75.8559L213 469.856M26 67.3559L219.5 451.856M213 469.856L219.5 451.856M213 469.856L507 423.856C519.5 428.132 548.1 434.12 562.5 423.856L807 437.856V423.856M219.5 451.856L507 415.356C524.2 420.156 558.167 417.356 573 415.356L807 423.856M807 423.856L775.973 396.856M90.7409 35.8559L109 77.8559L121.5 111.356C124 118.689 129.1 133.756 129.5 135.356C129.9 136.956 157.667 191.689 171.5 218.856L209.5 294.856L229.5 332.356L251.5 384.356L262.043 393.856M90.7409 35.8559L87.1 40.3559M262.043 393.856L283 396.356H332L395 399.856L423.5 387.856L455.5 376.356H481L507 367.356H525M262.043 393.856L259.995 396.356M87.1 40.3559L100.5 67.3559L111.5 100.856L129.5 151.856L161 205.856L198 288.356L219.5 321.356L243.5 376.356L251.5 393.856L257.947 398.856M87.1 40.3559L82.65 45.8559M257.947 398.856L259.995 396.356M257.947 398.856L253.442 404.356M82.65 45.8559L103 84.3559L114.5 121.356L121.5 147.356L134 181.856L152.5 212.356L171.5 250.356L189 277.856L204 309.856L219.5 344.856L237 373.356L251.5 406.726M82.65 45.8559L77.3909 52.3559M251.5 406.726L247.707 411.356M251.5 406.726L253.442 404.356M77.3909 52.3559L90.7409 84.3559L100.5 100.856L111.5 137.856L129.5 173.856L142 205.856L152.5 229.856L179 269.856L204 321.356L209.5 344.856L219.5 370.856L233 384.356L246 404.356L247.707 411.356M77.3909 52.3559L73 57.7829M247.707 411.356L243.5 416.492M73 57.7829L85 79.8559L93 103.356L105 128.356L129.5 186.856L144 223.356L158 247.856L171.5 267.356L189 298.856L198 318.356L207 351.356L213 367.356L219.5 382.356L235.5 399.856L243.5 416.492M73 57.7829L69.1273 62.5694M243.5 416.492L241.5 418.934M69.1273 62.5694L77.3909 89.8559L87.1 111.356L96 128.356L109 155.856L121.5 183.856L129.5 202.356L142 229.856L152.5 245.356L168.5 286.356L179 307.856L189 321.356L198 338.356L202 361.356L211 380.856L226 398.856L235.5 416.492L234.75 427.174M234.75 427.174L232.144 430.356M234.75 427.174L241.5 418.934M234.75 427.174H259.995L269 421.356L301 427.174L334.5 423.856L369 418.934L430.5 411.356L475 408.356L495.5 403.356L509.679 403.106M61.5 71.9963L73 92.3559L77.3909 111.356L90.7409 135.356L100.5 151.856L111.5 183.856L142 239.356L158 274.356L182 324.856L192 351.356L214.5 398.856L232.144 430.356M525 367.356L523.714 370.356M259.995 396.356L301 404.356H332L350 399.856L392 409.356L414 399.856L432.5 393.856C440.333 392.856 456.5 390.856 458.5 390.856C460.5 390.856 474.333 386.523 481 384.356L497 382.356L510.5 380.856L522.429 373.356M522.429 373.356L523.714 370.356M522.429 373.356L520.071 378.856M253.442 404.356L275 409.356L308 415.356L332 411.356L358 409.356H378.5L402.5 411.356L423.5 404.356L448.5 398.856L476.5 390.856H499.5L517.714 384.356M517.714 384.356L520.071 378.856M517.714 384.356L541.5 385.106L573 381.356L604.5 384.356L628 387.856L647 384.356L679.5 385.106L705 387.856L732 384.356L754 387.856L766.5 393.856L775.167 399.856M517.714 384.356L515.036 390.606M241.5 418.934L272 416.492L290 423.856L323 421.356L343.5 416.492L373 415.356L418.5 411.356L432.5 404.356L455.5 401.856L485 399.856L505 393.856L512.357 396.856M512.357 396.856L515.036 390.606M512.357 396.856L511.018 399.981M509.679 403.106L511.018 399.981M775.973 396.856L779.132 385.106M775.973 396.856L775.167 399.856M523.714 370.356H546L586.5 357.856H632L660 360.356L692 370.356L708.5 367.356L735.5 370.356L759.5 376.356L782.29 373.356M782.29 373.356L779.132 385.106M520.071 378.856L528 373.356L543.5 376.356H562.5L578.5 370.356H600L622.5 378.856L635.5 370.356H655.5L677 376.356L708.5 378.856L718 376.356L749 378.856L779.132 385.106M775.167 399.856L773.957 404.356M515.036 390.606L543.5 393.856L562.5 390.856H583L597.5 396.856H628L643 393.856L673 396.856L683.5 399.856L702 393.856H742.5L754 401.856L773.957 404.356M773.957 404.356L772.479 409.856M511.018 399.981L530.5 398.856L551.5 401.856L575.5 403.106L586.5 398.856L614.5 401.856L640 404.356L651.5 403.356L688 404.356L733 405.856L761.5 408.356L772.479 409.856" stroke="#FFD56A" stroke-width="0.8"/>
                </g>
                <g filter="url(#filter5_f_154_752)">
                    <path d="M96 29.3559C121.333 34.5226 185.8 40.6559 241 23.8559C296.2 7.0559 352.667 20.5226 374 29.3559M96 29.3559C108 87.3559 213.333 294.523 264.5 390.856M96 29.3559L90.7409 35.8559M374 29.3559L528 360.356M374 29.3559C385 20.8559 414 4.4559 442 6.8559C477 9.8559 582.5 21.3559 597.5 17.3559C609.5 14.1559 613.167 24.0226 613.5 29.3559C650.5 117.189 733.8 300.356 771 330.356C767.573 332.659 761.815 335.701 754 338.771M528 360.356C506.333 360.189 454.1 364.156 418.5 381.356C382.9 398.556 301 394.856 264.5 390.856M528 360.356C525.167 364.523 525.9 370.356 551.5 360.356C580.815 348.905 613.908 351.301 665 351.784M528 360.356L525 367.356M264.5 390.856L262.043 393.856M226 437.856L51.5 84.3559L61.5 71.9963M226 437.856L507 409.356M226 437.856L232.144 430.356M507 409.356L771 415.356L772.479 409.856M507 409.356L509.679 403.106M783.5 368.856L754 338.771M783.5 368.856C774.667 370.308 738.6 368.926 665 351.784M783.5 368.856L782.29 373.356M754 338.771C737.493 345.254 711.805 351.856 679.5 351.856C674.508 351.856 669.679 351.828 665 351.784M65.2546 67.3559H26M65.2546 67.3559L69.1273 62.5694M65.2546 67.3559L61.5 71.9963M26 67.3559C18.5801 70.6754 14.42 72.5364 7.00003 75.8559L213 469.856M26 67.3559L219.5 451.856M213 469.856L219.5 451.856M213 469.856L507 423.856C519.5 428.132 548.1 434.12 562.5 423.856L807 437.856V423.856M219.5 451.856L507 415.356C524.2 420.156 558.167 417.356 573 415.356L807 423.856M807 423.856L775.973 396.856M90.7409 35.8559L109 77.8559L121.5 111.356C124 118.689 129.1 133.756 129.5 135.356C129.9 136.956 157.667 191.689 171.5 218.856L209.5 294.856L229.5 332.356L251.5 384.356L262.043 393.856M90.7409 35.8559L87.1 40.3559M262.043 393.856L283 396.356H332L395 399.856L423.5 387.856L455.5 376.356H481L507 367.356H525M262.043 393.856L259.995 396.356M87.1 40.3559L100.5 67.3559L111.5 100.856L129.5 151.856L161 205.856L198 288.356L219.5 321.356L243.5 376.356L251.5 393.856L257.947 398.856M87.1 40.3559L82.65 45.8559M257.947 398.856L259.995 396.356M257.947 398.856L253.442 404.356M82.65 45.8559L103 84.3559L114.5 121.356L121.5 147.356L134 181.856L152.5 212.356L171.5 250.356L189 277.856L204 309.856L219.5 344.856L237 373.356L251.5 406.726M82.65 45.8559L77.3909 52.3559M251.5 406.726L247.707 411.356M251.5 406.726L253.442 404.356M77.3909 52.3559L90.7409 84.3559L100.5 100.856L111.5 137.856L129.5 173.856L142 205.856L152.5 229.856L179 269.856L204 321.356L209.5 344.856L219.5 370.856L233 384.356L246 404.356L247.707 411.356M77.3909 52.3559L73 57.7829M247.707 411.356L243.5 416.492M73 57.7829L85 79.8559L93 103.356L105 128.356L129.5 186.856L144 223.356L158 247.856L171.5 267.356L189 298.856L198 318.356L207 351.356L213 367.356L219.5 382.356L235.5 399.856L243.5 416.492M73 57.7829L69.1273 62.5694M243.5 416.492L241.5 418.934M69.1273 62.5694L77.3909 89.8559L87.1 111.356L96 128.356L109 155.856L121.5 183.856L129.5 202.356L142 229.856L152.5 245.356L168.5 286.356L179 307.856L189 321.356L198 338.356L202 361.356L211 380.856L226 398.856L235.5 416.492L234.75 427.174M234.75 427.174L232.144 430.356M234.75 427.174L241.5 418.934M234.75 427.174H259.995L269 421.356L301 427.174L334.5 423.856L369 418.934L430.5 411.356L475 408.356L495.5 403.356L509.679 403.106M61.5 71.9963L73 92.3559L77.3909 111.356L90.7409 135.356L100.5 151.856L111.5 183.856L142 239.356L158 274.356L182 324.856L192 351.356L214.5 398.856L232.144 430.356M525 367.356L523.714 370.356M259.995 396.356L301 404.356H332L350 399.856L392 409.356L414 399.856L432.5 393.856C440.333 392.856 456.5 390.856 458.5 390.856C460.5 390.856 474.333 386.523 481 384.356L497 382.356L510.5 380.856L522.429 373.356M522.429 373.356L523.714 370.356M522.429 373.356L520.071 378.856M253.442 404.356L275 409.356L308 415.356L332 411.356L358 409.356H378.5L402.5 411.356L423.5 404.356L448.5 398.856L476.5 390.856H499.5L517.714 384.356M517.714 384.356L520.071 378.856M517.714 384.356L541.5 385.106L573 381.356L604.5 384.356L628 387.856L647 384.356L679.5 385.106L705 387.856L732 384.356L754 387.856L766.5 393.856L775.167 399.856M517.714 384.356L515.036 390.606M241.5 418.934L272 416.492L290 423.856L323 421.356L343.5 416.492L373 415.356L418.5 411.356L432.5 404.356L455.5 401.856L485 399.856L505 393.856L512.357 396.856M512.357 396.856L515.036 390.606M512.357 396.856L511.018 399.981M509.679 403.106L511.018 399.981M775.973 396.856L779.132 385.106M775.973 396.856L775.167 399.856M523.714 370.356H546L586.5 357.856H632L660 360.356L692 370.356L708.5 367.356L735.5 370.356L759.5 376.356L782.29 373.356M782.29 373.356L779.132 385.106M520.071 378.856L528 373.356L543.5 376.356H562.5L578.5 370.356H600L622.5 378.856L635.5 370.356H655.5L677 376.356L708.5 378.856L718 376.356L749 378.856L779.132 385.106M775.167 399.856L773.957 404.356M515.036 390.606L543.5 393.856L562.5 390.856H583L597.5 396.856H628L643 393.856L673 396.856L683.5 399.856L702 393.856H742.5L754 401.856L773.957 404.356M773.957 404.356L772.479 409.856M511.018 399.981L530.5 398.856L551.5 401.856L575.5 403.106L586.5 398.856L614.5 401.856L640 404.356L651.5 403.356L688 404.356L733 405.856L761.5 408.356L772.479 409.856" stroke="white" stroke-width="0.4"/>
                </g>
            </g>
        </g>
        <defs>
            <filter id="filter0_b_154_752" x="1.82811" y="1.00009" width="825.172" height="473.79" filterUnits="userSpaceOnUse" color-interpolation-filters="sRGB">
                <feFlood flood-opacity="0" result="BackgroundImageFix"/>
                <feGaussianBlur in="BackgroundImageFix" stdDeviation="2"/>
                <feComposite in2="SourceAlpha" operator="in" result="effect1_backgroundBlur_154_752"/>
                <feBlend mode="normal" in="SourceGraphic" in2="effect1_backgroundBlur_154_752" result="shape"/>
            </filter>
            <filter id="filter1_f_154_752" x="0.673859" y="0.538659" width="812.406" height="475.461" filterUnits="userSpaceOnUse" color-interpolation-filters="sRGB">
                <feFlood flood-opacity="0" result="BackgroundImageFix"/>
                <feBlend mode="normal" in="SourceGraphic" in2="BackgroundImageFix" result="shape"/>
                <feGaussianBlur stdDeviation="2.715" result="effect1_foregroundBlur_154_752"/>
            </filter>
            <filter id="filter2_f_154_752" x="4.01811" y="3.95865" width="805.642" height="468.641" filterUnits="userSpaceOnUse" color-interpolation-filters="sRGB">
                <feFlood flood-opacity="0" result="BackgroundImageFix"/>
                <feBlend mode="normal" in="SourceGraphic" in2="BackgroundImageFix" result="shape"/>
                <feGaussianBlur stdDeviation="0.905" result="effect1_foregroundBlur_154_752"/>
            </filter>
            <filter id="filter3_ddi_154_752" x="3.75086" y="5.42566" width="806.252" height="469.307" filterUnits="userSpaceOnUse" color-interpolation-filters="sRGB">
                <feFlood flood-opacity="0" result="BackgroundImageFix"/>
                <feColorMatrix in="SourceAlpha" type="matrix" values="0 0 0 0 0 0 0 0 0 0 0 0 0 0 0 0 0 0 127 0" result="hardAlpha"/>
                <feOffset dy="1.3"/>
                <feGaussianBlur stdDeviation="0.5"/>
                <feColorMatrix type="matrix" values="0 0 0 0 0.224 0 0 0 0 0.15 0 0 0 0 0 0 0 0 0.7 0"/>
                <feBlend mode="multiply" in2="BackgroundImageFix" result="effect1_dropShadow_154_752"/>
                <feColorMatrix in="SourceAlpha" type="matrix" values="0 0 0 0 0 0 0 0 0 0 0 0 0 0 0 0 0 0 127 0" result="hardAlpha"/>
                <feOffset dy="1.81"/>
                <feGaussianBlur stdDeviation="1.1765"/>
                <feColorMatrix type="matrix" values="0 0 0 0 0.56 0 0 0 0 0.44 0 0 0 0 0 0 0 0 1 0"/>
                <feBlend mode="color-dodge" in2="effect1_dropShadow_154_752" result="effect2_dropShadow_154_752"/>
                <feBlend mode="normal" in="SourceGraphic" in2="effect2_dropShadow_154_752" result="shape"/>
                <feColorMatrix in="SourceAlpha" type="matrix" values="0 0 0 0 0 0 0 0 0 0 0 0 0 0 0 0 0 0 127 0" result="hardAlpha"/>
                <feOffset dx="-0.13" dy="0.26"/>
                <feGaussianBlur stdDeviation="0.065"/>
                <feComposite in2="hardAlpha" operator="arithmetic" k2="-1" k3="1"/>
                <feColorMatrix type="matrix" values="0 0 0 0 1 0 0 0 0 1 0 0 0 0 1 0 0 0 0.5 0"/>
                <feBlend mode="normal" in2="shape" result="effect3_innerShadow_154_752"/>
            </filter>
            <filter id="filter4_f_154_752" x="6.24854" y="6.01866" width="801.351" height="464.477" filterUnits="userSpaceOnUse" color-interpolation-filters="sRGB">
                <feFlood flood-opacity="0" result="BackgroundImageFix"/>
                <feBlend mode="normal" in="SourceGraphic" in2="BackgroundImageFix" result="shape"/>
                <feGaussianBlur stdDeviation="0.1" result="effect1_foregroundBlur_154_752"/>
            </filter>
            <filter id="filter5_f_154_752" x="6.59095" y="6.28531" width="800.742" height="463.924" filterUnits="userSpaceOnUse" color-interpolation-filters="sRGB">
                <feFlood flood-opacity="0" result="BackgroundImageFix"/>
                <feBlend mode="normal" in="SourceGraphic" in2="BackgroundImageFix" result="shape"/>
                <feGaussianBlur stdDeviation="0.0666667" result="effect1_foregroundBlur_154_752"/>
            </filter>
            <linearGradient id="paint0_linear_154_752" x1="348.5" y1="-65.9999" x2="559" y2="469" gradientUnits="userSpaceOnUse">
                <stop stop-color="#FCA311"/>
                <stop offset="1" stop-color="#DD1155"/>
            </linearGradient>
            <linearGradient id="paint1_linear_154_752" x1="422" y1="6.00009" x2="422" y2="469.237" gradientUnits="userSpaceOnUse">
                <stop stop-color="#AA1155" stop-opacity="0"/>
                <stop offset="1" stop-color="#AA1155"/>
            </linearGradient>
        </defs>
    </symbol>
</svg>